<?xml version="1.0" encoding="iso-8859-1"?>
<!-- Uploaded to: SVG Repo, www.svgrepo.com, Generator: SVG Repo Mixer Tools -->
<svg fill="#3f280e" height="800px" width="800px" version="1.1" id="Layer_1" xmlns="http://www.w3.org/2000/svg" xmlns:xlink="http://www.w3.org/1999/xlink" 
	 viewBox="0 0 512.003 512.003" xml:space="preserve">
<g>
	<g>
		<g>
			<polygon points="230.402,329.545 230.402,361.665 256.002,374.465 281.602,361.665 281.602,329.545 256.002,316.745 			"/>
			<polygon points="247.468,269.812 221.868,257.012 196.268,269.812 196.268,301.932 221.868,314.732 247.468,301.932 			"/>
			<polygon points="264.535,269.812 264.535,301.932 290.135,314.732 315.735,301.932 315.735,269.812 290.135,257.012 			"/>
			<path d="M256.002,187.733c49.894,0,93.961,30.609,111.565,76.8H474.19c-17.015-96.742-88.388-146.773-107.255-158.464V85.274
				c9.463-0.367,17.067-8.124,17.067-17.673v-49.86C384.002,7.962,376.04,0,366.269,0H145.734c-9.771,0-17.732,7.962-17.732,17.741
				v49.86c0,9.549,7.603,17.306,17.067,17.673v20.796c-18.867,11.691-90.257,61.739-107.255,158.464h106.624
				C162.041,218.342,206.107,187.733,256.002,187.733z M145.068,17.741c0-0.367,0.299-0.674,0.666-0.674h220.536
				c0.367,0,0.666,0.307,0.666,0.674v49.86c0,0.367-0.299,0.666-0.666,0.666H145.734c-0.367,0-0.666-0.299-0.666-0.666V17.741z"/>
			<path d="M256.002,426.67c-49.894,0-93.961-30.609-111.565-76.8H36.507c4.693,46.14,18.611,118.391,59.861,159.633l2.5,2.5
				h314.266l2.5-2.5c41.25-41.242,55.168-113.493,59.861-159.633h-107.93C349.962,396.061,305.896,426.67,256.002,426.67z"/>
			<path d="M477.868,307.169c0-8.841-0.495-17.34-1.331-25.566H355.321l-1.911-5.905c-13.705-42.411-52.847-70.895-97.408-70.895
				c-44.561,0-83.703,28.484-97.408,70.895l-1.911,5.905H35.466c-0.836,8.218-1.331,16.7-1.331,25.532
				c-0.009,1.434-0.034,11.076,0.939,25.668h121.609l1.911,5.905c13.705,42.411,52.847,70.895,97.408,70.895
				c44.561,0,83.703-28.484,97.408-70.895l1.911-5.905h121.617C477.903,318.314,477.877,308.714,477.868,307.169z M332.802,307.203
				c0,3.234-1.826,6.187-4.719,7.637l-29.414,14.703v37.393c0,3.234-1.826,6.187-4.719,7.637l-34.133,17.067
				c-1.195,0.597-2.509,0.896-3.814,0.896c-1.306,0-2.62-0.299-3.814-0.896l-34.133-17.067c-2.893-1.451-4.719-4.403-4.719-7.637
				v-37.393l-29.414-14.703c-2.893-1.451-4.719-4.403-4.719-7.637v-42.667c0-3.234,1.826-6.187,4.719-7.637l34.133-17.067
				c2.398-1.195,5.231-1.195,7.629,0l30.319,15.164l30.319-15.164c2.398-1.195,5.231-1.195,7.629,0l34.133,17.067
				c2.893,1.451,4.719,4.403,4.719,7.637V307.203z"/>
		</g>
	</g>
</g>
</svg>